<?xml version="1.0" encoding="iso-8859-1"?>
<!-- Uploaded to: SVG Repo, www.svgrepo.com, Generator: SVG Repo Mixer Tools -->
<svg height="800px" width="800px" version="1.1" id="Layer_1" xmlns="http://www.w3.org/2000/svg" xmlns:xlink="http://www.w3.org/1999/xlink" 
	 viewBox="0 0 512 512" xml:space="preserve">
<g>
	<path style="fill:#FF4D30;" d="M174.958,121.092h-34.487c-11.427,0-20.691,9.264-20.691,20.691v16.094
		c0,11.427,9.263,20.691,20.691,20.691h34.487V121.092z"/>
	<path style="fill:#FF4D30;" d="M371.529,121.092h-34.487v57.476h34.487c11.427,0,20.691-9.264,20.691-20.691v-16.094
		C392.22,130.356,382.957,121.092,371.529,121.092z"/>
	<path style="fill:#FF4D30;" d="M174.958,121.092h-34.487c-11.427,0-20.691,9.264-20.691,20.691v16.094
		c0,11.427,9.263,20.691,20.691,20.691h34.487V121.092z"/>
	<path style="fill:#FF4D30;" d="M371.529,121.092h-34.487v57.476h34.487c11.427,0,20.691-9.264,20.691-20.691v-16.094
		C392.22,130.356,382.957,121.092,371.529,121.092z"/>
	<path style="fill:#FF4D30;" d="M256,8.111c-18.988,0-34.379,15.393-34.379,34.381h68.757C290.379,23.504,274.988,8.111,256,8.111z"
		/>
</g>
<path style="fill:#FF9737;" d="M308.993,224.55h28.049V63.183c0-11.428-9.262-20.691-20.692-20.691H195.65
	c-11.426,0-20.692,9.263-20.692,20.691V224.55H284.12"/>
<circle style="fill:#FFD960;" cx="256.001" cy="103.305" r="24.607"/>
<g>
	<path style="fill:#578CAD;" d="M149.955,433.766v49.432c0,11.427,9.265,20.692,20.692,20.692h17.951
		c11.426,0,20.692-9.264,20.692-20.692v-49.432H149.955z"/>
	<path style="fill:#578CAD;" d="M302.712,433.766v49.432c0,11.427,9.265,20.692,20.692,20.692h17.951
		c11.426,0,20.692-9.264,20.692-20.692v-49.432H302.712z"/>
</g>
<path style="fill:#FF4D30;" d="M337.043,224.55h32.151c11.429,0,20.692,9.264,20.692,20.691v167.831
	c0,11.429-9.262,20.692-20.692,20.692H142.807c-11.429,0-20.692-9.262-20.692-20.692v-167.83c0-11.427,9.262-20.691,20.692-20.691
	h32.151"/>
<g style="opacity:0.2;">
	<path style="fill:#231F20;" d="M144.386,157.877v-16.094c0-11.427,9.263-20.691,20.691-20.691h-24.606
		c-11.427,0-20.691,9.264-20.691,20.691v16.094c0,11.427,9.263,20.691,20.691,20.691h24.606
		C153.65,178.568,144.386,169.304,144.386,157.877z"/>
</g>
<g style="opacity:0.2;">
	<path style="fill:#231F20;" d="M268.303,10.388c-3.821-1.465-7.966-2.277-12.303-2.277c-18.988,0-34.379,15.393-34.379,34.381
		h24.606C246.228,27.841,255.395,15.339,268.303,10.388z"/>
</g>
<g style="opacity:0.2;">
	<path style="fill:#231F20;" d="M220.255,42.492h-24.606c-11.426,0-20.692,9.263-20.692,20.691V224.55h24.606V63.183
		C199.564,51.755,208.829,42.492,220.255,42.492z"/>
</g>
<g style="opacity:0.2;">
	<path style="fill:#231F20;" d="M174.561,483.198v-49.432h-24.606v49.432c0,11.427,9.265,20.692,20.692,20.692h17.951
		c1.136,0,2.242-0.116,3.328-0.292C182.085,502.002,174.561,493.489,174.561,483.198z"/>
</g>
<g style="opacity:0.2;">
	<path style="fill:#231F20;" d="M327.318,483.198v-49.432h-24.606v49.432c0,11.427,9.265,20.692,20.692,20.692h17.951
		c1.136,0,2.242-0.116,3.328-0.292C334.842,502.002,327.318,493.489,327.318,483.198z"/>
</g>
<g style="opacity:0.2;">
	<path style="fill:#231F20;" d="M146.721,413.073V245.242c0-11.427,9.262-20.691,20.692-20.691h-24.606
		c-11.429,0-20.692,9.264-20.692,20.691v167.831c0,11.429,9.262,20.692,20.692,20.692h24.606
		C155.984,433.766,146.721,424.503,146.721,413.073z"/>
</g>
<g style="opacity:0.1;">
	<path style="fill:#231F20;" d="M255.998,103.299c0-9.106,4.951-17.052,12.304-21.308c-3.621-2.095-7.819-3.3-12.302-3.3
		c-13.591,0-24.608,11.017-24.608,24.607c0,13.59,11.017,24.607,24.608,24.607c4.483,0,8.681-1.205,12.302-3.3
		C260.949,120.351,255.998,112.406,255.998,103.299z"/>
</g>
<g>
	<path style="fill:#231F20;" d="M371.529,112.981h-26.376V63.183c0-15.882-12.921-28.802-28.803-28.802h-18.646
		C293.906,14.818,276.654,0,256,0s-37.906,14.818-41.705,34.381h-18.646c-15.883,0-28.803,12.921-28.803,28.802v49.798H140.47
		c-15.882,0-28.802,12.921-28.802,28.802v16.094c0,15.882,12.921,28.802,28.802,28.802h26.376v29.76h-24.04
		c-15.883,0-28.803,12.921-28.803,28.802v167.831c0,15.559,12.403,28.267,27.839,28.779v41.346
		c0,15.883,12.921,28.803,28.803,28.803h17.951c15.883,0,28.803-12.921,28.803-28.803v-41.321h77.2v41.321
		c0,15.883,12.921,28.803,28.803,28.803h17.951c15.883,0,28.803-12.921,28.803-28.803v-41.346
		c15.436-0.512,27.839-13.22,27.839-28.779v-167.83c0-15.882-12.921-28.802-28.803-28.802h-24.039v-29.76h26.376
		c15.882,0,28.802-12.921,28.802-28.802v-16.094C400.331,125.901,387.411,112.981,371.529,112.981z M256,16.222
		c11.654,0,21.562,7.63,24.987,18.158h-49.973C234.439,23.852,244.346,16.222,256,16.222z M140.471,170.457
		c-6.937,0-12.58-5.643-12.58-12.58v-16.094c0-6.937,5.643-12.58,12.58-12.58h26.376v41.255h-26.376V170.457z M201.178,483.198
		c0,6.937-5.644,12.581-12.581,12.581h-17.951c-6.937,0-12.581-5.644-12.581-12.581v-41.321h43.112v41.321H201.178z
		 M353.935,483.198c0,6.937-5.644,12.581-12.581,12.581h-17.951c-6.937,0-12.581-5.644-12.581-12.581v-41.321h43.112v41.321H353.935
		z M381.774,245.242v167.831c0,6.937-5.644,12.581-12.581,12.581h-7.147h-59.334h-93.423h-59.334h-7.147
		c-6.937,0-12.581-5.644-12.581-12.581V245.242c0-6.937,5.644-12.58,12.581-12.58h32.151h109.162c4.481,0,8.111-3.632,8.111-8.111
		c0-4.48-3.631-8.111-8.111-8.111H183.07v-37.871v-57.477V63.183c0-6.937,5.644-12.58,12.581-12.58h25.972h68.757h25.972
		c6.937,0,12.581,5.643,12.581,12.58v57.909v57.477v37.871h-19.938c-4.481,0-8.111,3.632-8.111,8.111
		c0,4.48,3.631,8.111,8.111,8.111h28.05h32.151C376.129,232.661,381.774,238.306,381.774,245.242z M384.109,157.877
		c0,6.937-5.643,12.58-12.58,12.58h-26.376v-41.255h26.376c6.937,0,12.58,5.643,12.58,12.58V157.877z"/>
	<path style="fill:#231F20;" d="M179.621,262.42c-4.481,0-8.111,3.632-8.111,8.111c0,4.481,3.631,8.111,8.111,8.111h157.422
		c4.481,0,8.111-3.631,8.111-8.111c0-4.48-3.631-8.111-8.111-8.111L179.621,262.42L179.621,262.42z"/>
	<path style="fill:#231F20;" d="M256,136.019c18.04,0,32.717-14.678,32.717-32.719c0-18.042-14.677-32.719-32.717-32.719
		c-18.042,0-32.72,14.677-32.72,32.719C223.28,121.341,237.96,136.019,256,136.019z M256,86.803c9.095,0,16.495,7.4,16.495,16.496
		c0,9.096-7.4,16.496-16.495,16.496c-9.096,0-16.497-7.401-16.497-16.496C239.503,94.203,246.904,86.803,256,86.803z"/>
	<path style="fill:#231F20;" d="M289.709,162.209c-3.98-2.056-8.873-0.496-10.927,3.487c-4.431,8.582-13.16,13.911-22.781,13.911
		c-9.621,0-18.352-5.331-22.783-13.912c-2.056-3.982-6.951-5.539-10.929-3.485c-3.981,2.055-5.541,6.949-3.486,10.929
		c7.23,13.997,21.482,22.692,37.198,22.692s29.969-8.695,37.196-22.693C295.251,169.157,293.69,164.264,289.709,162.209z"/>
	<path style="fill:#231F20;" d="M83.987,248.626c-4.481,0-8.111,3.632-8.111,8.111v131.047c0,4.481,3.631,8.111,8.111,8.111
		c4.481,0,8.111-3.631,8.111-8.111V256.738C92.098,252.258,88.468,248.626,83.987,248.626z"/>
	<path style="fill:#231F20;" d="M428.013,248.626c-4.481,0-8.111,3.632-8.111,8.111v131.047c0,4.481,3.631,8.111,8.111,8.111
		s8.111-3.631,8.111-8.111V256.738C436.124,252.258,432.494,248.626,428.013,248.626z"/>
</g>
</svg>